<?xml version="1.0" encoding="UTF-8" standalone="no"?>
<svg
   width="100"
   height="100"
   version="1.1"
   id="svg8"
   sodipodi:docname="AEP_USINE_TRAITEMENT.svg"
   inkscape:version="1.1.1 (3bf5ae0d25, 2021-09-20)"
   xmlns:inkscape="http://www.inkscape.org/namespaces/inkscape"
   xmlns:sodipodi="http://sodipodi.sourceforge.net/DTD/sodipodi-0.dtd"
   xmlns="http://www.w3.org/2000/svg"
   xmlns:svg="http://www.w3.org/2000/svg"
   xmlns:rdf="http://www.w3.org/1999/02/22-rdf-syntax-ns#"
   xmlns:cc="http://creativecommons.org/ns#"
   xmlns:dc="http://purl.org/dc/elements/1.1/">
  <metadata
     id="metadata829">
    <rdf:RDF>
      <cc:Work
         rdf:about="">
        <dc:format>image/svg+xml</dc:format>
        <dc:type
           rdf:resource="http://purl.org/dc/dcmitype/StillImage" />
        <cc:license
           rdf:resource="http://creativecommons.org/licenses/by-sa/4.0/" />
        <dc:creator>
          <cc:Agent>
            <dc:title>ASTEE</dc:title>
          </cc:Agent>
        </dc:creator>
        <dc:contributor>
          <cc:Agent>
            <dc:title>ASTEE; Le Grand Lyon</dc:title>
          </cc:Agent>
        </dc:contributor>
        <dc:language>FR</dc:language>
        <dc:subject>
          <rdf:Bag>
            <rdf:li>eau</rdf:li>
            <rdf:li>potable</rdf:li>
            <rdf:li>assainissement</rdf:li>
          </rdf:Bag>
        </dc:subject>
        <dc:date />
      </cc:Work>
      <cc:License
         rdf:about="http://creativecommons.org/licenses/by-sa/4.0/">
        <cc:permits
           rdf:resource="http://creativecommons.org/ns#Reproduction" />
        <cc:permits
           rdf:resource="http://creativecommons.org/ns#Distribution" />
        <cc:requires
           rdf:resource="http://creativecommons.org/ns#Notice" />
        <cc:requires
           rdf:resource="http://creativecommons.org/ns#Attribution" />
        <cc:permits
           rdf:resource="http://creativecommons.org/ns#DerivativeWorks" />
        <cc:requires
           rdf:resource="http://creativecommons.org/ns#ShareAlike" />
      </cc:License>
    </rdf:RDF>
  </metadata>
  <defs
     id="defs12" />
  <sodipodi:namedview
     pagecolor="#ffffff"
     bordercolor="#666666"
     borderopacity="1"
     objecttolerance="10"
     gridtolerance="10"
     guidetolerance="10"
     inkscape:pageopacity="0"
     inkscape:pageshadow="2"
     inkscape:window-width="1546"
     inkscape:window-height="837"
     id="namedview10"
     showgrid="false"
     inkscape:zoom="3.364"
     inkscape:cx="33.294"
     inkscape:cy="49.494"
     inkscape:window-x="0"
     inkscape:window-y="0"
     inkscape:window-maximized="0"
     inkscape:current-layer="layer1"
     inkscape:pagecheckerboard="0" />
  <g
     inkscape:groupmode="layer"
     id="layer2"
     inkscape:label="fond" />
  <g
     inkscape:groupmode="layer"
     id="layer1"
     inkscape:label="usine"
     style="display:inline">
    <g
       id="g849"
       transform="translate(0.3925,0.3935)">
      <path
         fill="#FFFFFF"
         fill-opacity="1"
         stroke="#FFF"
         stroke-width="0.265"
         d="m 24.943,0.877 h 49.328 c 13.293,0 24.068,10.777 24.068,24.071 v 49.326 c 0,13.293 -10.775,24.068 -24.068,24.068 H 24.943 C 11.649,98.342 0.873,87.567 0.873,74.274 V 24.948 C 0.874,11.654 11.649,0.877 24.943,0.877 Z"
         id="path2"
         style="fill:#ffffff;fill-opacity:1;stroke:none;stroke-opacity:1" />
      <path
         d="m 25.979,-0.168 c -14.448,0 -26.147,11.699 -26.147,26.147 v 47.256 c 0,14.449 11.699,26.146 26.147,26.146 h 47.258 c 14.447,0 26.146,-11.696 26.146,-26.146 V 25.979 C 99.383,11.53 87.687,-0.168 73.237,-0.168 Z m 0,6.221 h 47.258 c 12.22,0 19.923,7.702 19.923,19.925 v 47.255 c 0,12.223 -7.703,19.928 -19.923,19.928 H 25.979 C 13.757,93.161 6.053,85.456 6.053,73.233 V 25.978 c 0,-12.222 7.703,-19.925 19.926,-19.925 z"
         id="path4"
         style="fill:#000000;fill-opacity:1;stroke:none;stroke-width:1.3;stroke-miterlimit:4;stroke-dasharray:none;stroke-opacity:1" />
      <path
         inkscape:connector-curvature="0"
         d="m 13.554,36.947 v 38.294 l 0.527,0.965 a 5.573,5.573 0 0 0 2.604,2.365 c 0.654,0.29 2.712,0.312 32.821,0.312 h 32.131 l 0.945,-0.437 c 1.186,-0.53 2.26,-1.658 2.715,-2.86 0.328,-0.855 0.344,-1.748 0.344,-25.958 V 24.559 l -0.38,-0.51 c -0.51,-0.69 -1.24,-1.018 -1.985,-0.892 -0.438,0.09 -2.512,1.803 -8.393,6.937 l -7.808,6.844 -0.09,-6.408 -0.09,-6.39 -0.51,-0.417 c -0.675,-0.583 -1.586,-0.746 -2.24,-0.383 -0.293,0.145 -3.935,3.258 -8.084,6.9 l -7.556,6.626 -0.09,-6.207 c -0.07,-5.08 -0.147,-6.281 -0.365,-6.627 -0.382,-0.583 -1.383,-1.002 -2.058,-0.875 -0.418,0.07 -2.693,1.967 -8.409,6.955 l -7.826,6.862 -0.21,-12.693 c -0.565,-1.073 -1.13,-1.083 -2.286,-1.083 0.218,-0.803 -13.705,13.75 -13.705,13.75 z m 25.576,21 v 7.007 l -4.679,-0.04 -4.698,-0.05 -0.05,-6.736 c -0.02,-3.696 0,-6.844 0.05,-6.954 0.05,-0.181 1.166,-0.238 4.733,-0.238 h 4.643 v 7.012 0 z m 18.568,0 v 7.007 H 48.414 V 50.936 h 9.283 v 7.012 z m 18.568,0 v 7.007 H 66.981 V 50.936 h 9.285 v 7.012 z"
         id="path6-3"
         fill="#000000" />
    </g>
  </g>
</svg>
