<?xml version="1.0" encoding="UTF-8" standalone="no"?>
<svg
   width="100"
   height="100"
   viewBox="0 -92.5 100 100"
   version="1.1"
   id="svg7"
   sodipodi:docname="AEP_POINT_CHLORATION.svg"
   inkscape:version="1.1.1 (3bf5ae0d25, 2021-09-20)"
   xmlns:inkscape="http://www.inkscape.org/namespaces/inkscape"
   xmlns:sodipodi="http://sodipodi.sourceforge.net/DTD/sodipodi-0.dtd"
   xmlns="http://www.w3.org/2000/svg"
   xmlns:svg="http://www.w3.org/2000/svg"
   xmlns:rdf="http://www.w3.org/1999/02/22-rdf-syntax-ns#"
   xmlns:cc="http://creativecommons.org/ns#"
   xmlns:dc="http://purl.org/dc/elements/1.1/">
  <defs
     id="defs11" />
  <sodipodi:namedview
     id="namedview9"
     pagecolor="#505050"
     bordercolor="#eeeeee"
     borderopacity="1"
     inkscape:pageshadow="0"
     inkscape:pageopacity="0"
     inkscape:pagecheckerboard="0"
     showgrid="false"
     inkscape:zoom="2.9901"
     inkscape:cx="49.497"
     inkscape:cy="74.412"
     inkscape:window-width="1598"
     inkscape:window-height="837"
     inkscape:window-x="0"
     inkscape:window-y="0"
     inkscape:window-maximized="1"
     inkscape:current-layer="svg7" />
  <metadata
     id="metadata829">
    <rdf:RDF>
      <cc:Work
         rdf:about="">
        <dc:format>image/svg+xml</dc:format>
        <dc:type
           rdf:resource="http://purl.org/dc/dcmitype/StillImage" />
        <cc:license
           rdf:resource="http://creativecommons.org/licenses/by-sa/4.0/" />
        <dc:creator>
          <cc:Agent>
            <dc:title>ASTEE</dc:title>
          </cc:Agent>
        </dc:creator>
        <dc:contributor>
          <cc:Agent>
            <dc:title>ASTEE; Le Grand Lyon</dc:title>
          </cc:Agent>
        </dc:contributor>
        <dc:language>FR</dc:language>
        <dc:subject>
          <rdf:Bag>
            <rdf:li>eau</rdf:li>
            <rdf:li>potable</rdf:li>
            <rdf:li>assainissement</rdf:li>
          </rdf:Bag>
        </dc:subject>
        <dc:date />
      </cc:Work>
      <cc:License
         rdf:about="http://creativecommons.org/licenses/by-sa/4.0/">
        <cc:permits
           rdf:resource="http://creativecommons.org/ns#Reproduction" />
        <cc:permits
           rdf:resource="http://creativecommons.org/ns#Distribution" />
        <cc:requires
           rdf:resource="http://creativecommons.org/ns#Notice" />
        <cc:requires
           rdf:resource="http://creativecommons.org/ns#Attribution" />
        <cc:permits
           rdf:resource="http://creativecommons.org/ns#DerivativeWorks" />
        <cc:requires
           rdf:resource="http://creativecommons.org/ns#ShareAlike" />
      </cc:License>
    </rdf:RDF>
  </metadata>
  <g
     id="g866"
     transform="translate(0.3925,-1.123)">
    <path
       fill="#ffffff"
       fill-opacity="1"
       stroke="#010202"
       stroke-width="0.8"
       stroke-linecap="square"
       stroke-miterlimit="10"
       d="m 51.78,5.422 v 0 L 51.294,5.829 50.771,6.114 50.194,6.274 49.627,6.356 49.017,6.317 48.449,6.154 47.919,5.867 47.427,5.466 2.766,-39.201 v 0 l -0.406,-0.49 -0.284,-0.528 -0.163,-0.568 -0.04,-0.609 0.08,-0.572 0.162,-0.566 0.285,-0.53 0.366,-0.532 44.624,-44.622 v 0 l 0.529,-0.366 0.53,-0.283 0.568,-0.163 0.569,-0.08 0.608,0.04 0.577,0.163 0.523,0.285 0.486,0.406 44.666,44.662 v 0 l 0.408,0.492 0.282,0.53 0.166,0.566 0.04,0.611 -0.08,0.57 -0.16,0.568 -0.286,0.528 -0.408,0.49 z"
       id="path3"
       style="stroke:#010202;stroke-width:3;stroke-miterlimit:10;stroke-dasharray:none;stroke-opacity:1" />
    <path
       fill="#FFFFFF"
       d="m 51.75,-61.456 0.633,0.633 0.577,0.637 0.519,0.69 0.399,0.687 0.404,0.69 0.231,0.748 0.229,0.75 0.112,0.802 v 0.349 l -0.06,0.342 -0.173,0.35 -0.23,0.285 -0.228,0.231 -0.288,0.173 -0.344,0.114 -0.347,0.06 H 52.84 l -0.343,-0.06 -0.29,-0.114 -0.284,-0.117 -0.288,-0.227 -0.233,-0.291 -0.115,-0.346 -0.114,-0.4 -0.116,-0.577 -0.114,-0.574 -0.232,-0.515 -0.287,-0.521 -0.287,-0.462 -0.347,-0.458 -0.402,-0.459 -0.458,-0.403 -0.46,-0.403 -0.52,-0.344 -0.574,-0.234 -0.518,-0.228 -0.575,-0.175 -0.578,-0.171 -0.571,-0.06 H 44.5 l -0.918,0.06 -0.865,0.171 -0.862,0.292 -0.804,0.401 -0.691,0.574 -0.691,0.632 -0.63,0.805 -0.634,0.862 -0.461,0.922 -0.402,0.921 -0.345,0.981 -0.289,1.034 -0.229,1.15 -0.172,1.152 -0.116,1.149 v 2.529 l 0.116,1.266 0.172,1.151 0.229,1.093 0.289,1.094 0.345,0.979 0.402,0.976 0.461,0.862 0.575,0.865 0.632,0.747 0.692,0.633 0.747,0.518 0.804,0.401 0.805,0.289 0.922,0.173 0.918,0.06 0.748,-0.06 0.691,-0.06 0.691,-0.115 0.634,-0.23 0.576,-0.231 0.515,-0.288 0.52,-0.345 0.516,-0.403 0.46,-0.458 0.405,-0.578 0.343,-0.575 0.347,-0.631 0.23,-0.689 0.229,-0.751 0.174,-0.745 0.113,-0.865 0.06,-0.459 0.117,-0.402 0.23,-0.344 0.286,-0.233 0.287,-0.174 0.29,-0.11 0.344,-0.06 h 0.402 l 0.345,0.115 0.343,0.117 0.293,0.172 0.229,0.228 0.228,0.344 0.173,0.348 0.06,0.344 v 0.405 l -0.178,1.036 -0.284,1.035 -0.292,0.975 -0.398,0.92 -0.405,0.809 -0.517,0.802 -0.575,0.75 -0.632,0.69 -0.692,0.634 -0.806,0.517 -0.862,0.46 -0.921,0.406 -0.92,0.284 -0.979,0.233 -1.091,0.111 h -1.783 l -0.747,-0.06 -0.636,-0.05 -0.69,-0.118 -0.631,-0.172 -0.577,-0.227 -0.631,-0.234 -0.573,-0.23 -0.519,-0.345 -0.52,-0.345 -0.517,-0.345 -0.517,-0.403 -0.463,-0.46 -0.403,-0.517 -0.456,-0.517 -0.406,-0.517 -0.631,-1.096 -0.577,-1.15 -0.459,-1.211 -0.403,-1.317 -0.346,-1.385 -0.172,-1.438 -0.172,-1.495 v -3.162 l 0.172,-1.496 0.23,-1.382 0.288,-1.378 0.461,-1.324 0.517,-1.211 0.575,-1.204 0.69,-1.095 0.404,-0.575 0.46,-0.578 0.459,-0.456 0.46,-0.521 0.462,-0.404 0.518,-0.403 0.516,-0.344 0.519,-0.286 0.576,-0.288 0.574,-0.23 0.631,-0.228 0.578,-0.175 0.63,-0.114 0.634,-0.117 0.692,-0.06 h 0.688 l 0.977,0.06 0.98,0.117 0.919,0.172 0.923,0.288 0.861,0.4 0.803,0.406 0.808,0.519 z m 7.995,-2.07 0.233,-0.113 0.291,-0.116 h 0.283 l 0.344,-0.06 0.289,0.06 h 0.289 l 0.229,0.116 0.23,0.113 0.23,0.174 0.174,0.23 0.112,0.23 v 28.073 l -0.112,0.229 -0.174,0.174 -0.23,0.172 -0.23,0.114 -0.229,0.12 -0.289,0.05 h -0.633 l -0.283,-0.05 -0.291,-0.12 -0.233,-0.114 -0.171,-0.172 -0.173,-0.233 -0.06,-0.227 -0.06,-0.231 v -27.554 l 0.06,-0.288 0.06,-0.23 0.173,-0.173 z m -38.714,32.445 h 57.066 l -28.419,29.34 z"
       id="path5"
       style="fill:#000000;stroke:#010202;stroke-opacity:1" />
  </g>
</svg>
