<?xml version="1.0" encoding="UTF-8" standalone="no"?>
<svg
   width="100"
   height="100"
   version="1.1"
   id="svg11"
   sodipodi:docname="AEP_BOUCHE_ARROSAGE.svg"
   inkscape:version="1.1.1 (3bf5ae0d25, 2021-09-20)"
   xmlns:inkscape="http://www.inkscape.org/namespaces/inkscape"
   xmlns:sodipodi="http://sodipodi.sourceforge.net/DTD/sodipodi-0.dtd"
   xmlns="http://www.w3.org/2000/svg"
   xmlns:svg="http://www.w3.org/2000/svg"
   xmlns:rdf="http://www.w3.org/1999/02/22-rdf-syntax-ns#"
   xmlns:cc="http://creativecommons.org/ns#"
   xmlns:dc="http://purl.org/dc/elements/1.1/">
  <defs
     id="defs15" />
  <sodipodi:namedview
     id="namedview13"
     pagecolor="#ffffff"
     bordercolor="#666666"
     borderopacity="1.0"
     inkscape:pageshadow="2"
     inkscape:pageopacity="0.0"
     inkscape:pagecheckerboard="0"
     showgrid="false"
     inkscape:zoom="3.3362564"
     inkscape:cx="66.541648"
     inkscape:cy="51.404922"
     inkscape:window-width="1598"
     inkscape:window-height="837"
     inkscape:window-x="0"
     inkscape:window-y="0"
     inkscape:window-maximized="1"
     inkscape:current-layer="svg11"
     width="100px"
     units="px" />
  <metadata
     id="metadata829">
    <rdf:RDF>
      <cc:Work
         rdf:about="">
        <dc:format>image/svg+xml</dc:format>
        <dc:type
           rdf:resource="http://purl.org/dc/dcmitype/StillImage" />
        <cc:license
           rdf:resource="http://creativecommons.org/licenses/by-sa/4.0/" />
        <dc:creator>
          <cc:Agent>
            <dc:title>ASTEE</dc:title>
          </cc:Agent>
        </dc:creator>
        <dc:contributor>
          <cc:Agent>
            <dc:title>ASTEE; Le Grand Lyon</dc:title>
          </cc:Agent>
        </dc:contributor>
        <dc:language>FR</dc:language>
        <dc:subject>
          <rdf:Bag>
            <rdf:li>eau</rdf:li>
            <rdf:li>potable</rdf:li>
            <rdf:li>assainissement</rdf:li>
          </rdf:Bag>
        </dc:subject>
        <dc:date />
      </cc:Work>
      <cc:License
         rdf:about="http://creativecommons.org/licenses/by-sa/4.0/">
        <cc:permits
           rdf:resource="http://creativecommons.org/ns#Reproduction" />
        <cc:permits
           rdf:resource="http://creativecommons.org/ns#Distribution" />
        <cc:requires
           rdf:resource="http://creativecommons.org/ns#Notice" />
        <cc:requires
           rdf:resource="http://creativecommons.org/ns#Attribution" />
        <cc:permits
           rdf:resource="http://creativecommons.org/ns#DerivativeWorks" />
        <cc:requires
           rdf:resource="http://creativecommons.org/ns#ShareAlike" />
      </cc:License>
    </rdf:RDF>
  </metadata>
  <path
     fill="#ffffff"
     stroke="#000000"
     stroke-width="1"
     stroke-linecap="square"
     stroke-miterlimit="10"
     d="m 461.745,295.124 v 0"
     id="path3" />
  <g
     id="g828"
     transform="translate(0.393,0.393)">
    <path
       stroke-miterlimit="3"
       stroke-width=" 1"
       fill="#ffffff"
       stroke="#000000"
       stroke-linecap="square"
       d="m 94.424,20.355 0.821,0.206 0.686,0.205 0.683,0.34 0.479,0.274 0.414,0.479 0.203,0.479 0.137,0.617 v 53.302 0 l -0.137,0.549 -0.203,0.482 -0.414,0.408 -0.479,0.408 -0.683,0.342 -0.686,0.207 -0.821,0.205 -0.89,0.069 H 5.608 v 0 L 4.719,78.858 3.9,78.653 3.215,78.446 2.6,78.104 2.053,77.696 1.712,77.288 1.437,76.806 1.367,76.257 v -53.302 0 L 1.437,22.338 1.712,21.859 2.053,21.38 2.6,21.106 3.215,20.766 3.9,20.561 4.719,20.355 5.608,20.287 h 87.926 z"
       id="path5"
       style="stroke-width:3;stroke-miterlimit:3;stroke-dasharray:none" />
    <path
       stroke-miterlimit="10"
       fill="#ffffff"
       stroke="#000000"
       stroke-width="1"
       stroke-linecap="square"
       d="m 70.21,37.818389 -1.119,0.256 -1.215,0.26 -1.033,0.43 -1.039,0.521 -0.951,0.603 -0.864,0.607 -0.947,0.78 -0.693,0.86 -0.696,0.862 -0.597,1.041 -0.522,1.035 -0.439,1.035 -0.255,1.126 -0.169,1.21 -0.088,1.211 v 0 l 0.088,1.202 0.169,1.3 0.255,1.037 0.439,1.124 0.522,1.035 0.597,1.037 0.696,0.863 0.693,0.863 0.947,0.772 0.864,0.614 0.951,0.603 1.039,0.52 1.033,0.431 1.215,0.26 1.119,0.169 h 2.422 l 1.211,-0.169 1.119,-0.26 1.117,-0.431 1.043,-0.52 0.953,-0.603 0.946,-0.614 0.776,-0.772 0.866,-0.863 0.686,-0.863 0.611,-1.037 0.519,-1.035 0.346,-1.124 0.342,-1.037 0.093,-1.3 0.081,-1.202 v 0 l -0.081,-1.211 -0.093,-1.21 -0.342,-1.126 -0.346,-1.035 -0.519,-1.035 -0.611,-1.041 -0.686,-0.862 -0.866,-0.86 -0.776,-0.78 -0.946,-0.607 -0.953,-0.603 -1.043,-0.521 -1.117,-0.43 -1.119,-0.26 -1.211,-0.256 -1.217,-0.086 z"
       id="path7"
       style="stroke-width:3;stroke-miterlimit:10;stroke-dasharray:none" />
    <path
       stroke-miterlimit="10"
       fill="#ffffff"
       stroke="#000000"
       stroke-width="1"
       stroke-linecap="square"
       d="m 26.496,37.813267 -1.038,0.173 -1.296,0.345 -0.949,0.434 -1.128,0.432 -0.945,0.603 -0.863,0.607 -0.954,0.864 -0.691,0.776 -0.689,0.951 -0.605,0.952 -0.521,1.035 -0.43,1.122 -0.261,1.123 -0.085,1.211 -0.174,1.209 v 0 l 0.174,1.208 0.085,1.211 0.261,1.123 0.43,1.12 0.521,1.037 0.605,0.953 0.689,0.951 0.691,0.775 0.954,0.862 0.863,0.613 0.945,0.6 1.128,0.434 0.949,0.431 1.296,0.345 1.038,0.174 h 2.417 l 1.295,-0.174 1.04,-0.345 1.122,-0.431 1.037,-0.434 1.04,-0.6 0.859,-0.613 0.866,-0.862 0.777,-0.775 0.689,-0.951 0.608,-0.953 0.513,-1.037 0.435,-1.12 0.261,-1.123 0.08,-1.211 0.178,-1.208 v 0 l -0.178,-1.209 -0.08,-1.211 -0.261,-1.123 -0.435,-1.122 -0.513,-1.035 -0.608,-0.952 -0.689,-0.951 -0.777,-0.776 -0.866,-0.864 -0.859,-0.607 -1.04,-0.603 -1.037,-0.432 -1.122,-0.434 -1.04,-0.345 -1.295,-0.173 -1.209,-0.083 z"
       id="path9"
       style="stroke-width:3;stroke-miterlimit:10;stroke-dasharray:none" />
  </g>
</svg>
