<?xml version="1.0" encoding="UTF-8" standalone="no"?>
<svg
   width="100"
   height="100"
   version="1.1"
   id="svg11"
   sodipodi:docname="EAU_PLUVIOMETRE.svg"
   inkscape:version="1.1.1 (3bf5ae0d25, 2021-09-20)"
   xmlns:inkscape="http://www.inkscape.org/namespaces/inkscape"
   xmlns:sodipodi="http://sodipodi.sourceforge.net/DTD/sodipodi-0.dtd"
   xmlns="http://www.w3.org/2000/svg"
   xmlns:svg="http://www.w3.org/2000/svg"
   xmlns:rdf="http://www.w3.org/1999/02/22-rdf-syntax-ns#"
   xmlns:cc="http://creativecommons.org/ns#"
   xmlns:dc="http://purl.org/dc/elements/1.1/">
  <metadata
     id="metadata829">
    <rdf:RDF>
      <cc:Work
         rdf:about="">
        <dc:format>image/svg+xml</dc:format>
        <dc:type
           rdf:resource="http://purl.org/dc/dcmitype/StillImage" />
        <cc:license
           rdf:resource="http://creativecommons.org/licenses/by-sa/4.0/" />
        <dc:creator>
          <cc:Agent>
            <dc:title>ASTEE</dc:title>
          </cc:Agent>
        </dc:creator>
        <dc:contributor>
          <cc:Agent>
            <dc:title>ASTEE; Le Grand Lyon</dc:title>
          </cc:Agent>
        </dc:contributor>
        <dc:language>FR</dc:language>
        <dc:subject>
          <rdf:Bag>
            <rdf:li>eau</rdf:li>
            <rdf:li>potable</rdf:li>
            <rdf:li>assainissement</rdf:li>
          </rdf:Bag>
        </dc:subject>
        <dc:date />
      </cc:Work>
      <cc:License
         rdf:about="http://creativecommons.org/licenses/by-sa/4.0/">
        <cc:permits
           rdf:resource="http://creativecommons.org/ns#Reproduction" />
        <cc:permits
           rdf:resource="http://creativecommons.org/ns#Distribution" />
        <cc:requires
           rdf:resource="http://creativecommons.org/ns#Notice" />
        <cc:requires
           rdf:resource="http://creativecommons.org/ns#Attribution" />
        <cc:permits
           rdf:resource="http://creativecommons.org/ns#DerivativeWorks" />
        <cc:requires
           rdf:resource="http://creativecommons.org/ns#ShareAlike" />
      </cc:License>
    </rdf:RDF>
  </metadata>
  <sodipodi:namedview
     pagecolor="#ffffff"
     bordercolor="#666666"
     borderopacity="1"
     objecttolerance="10"
     gridtolerance="10"
     guidetolerance="10"
     inkscape:pageopacity="0"
     inkscape:pageshadow="2"
     inkscape:window-width="1598"
     inkscape:window-height="837"
     id="namedview13"
     showgrid="false"
     inkscape:zoom="1.8483"
     inkscape:cx="130.93"
     inkscape:cy="63.032"
     inkscape:window-x="0"
     inkscape:window-y="0"
     inkscape:window-maximized="1"
     inkscape:current-layer="svg11"
     inkscape:pagecheckerboard="0"
     width="100px" />
  <defs
     id="defs5">
    <pattern
       patternTransform="matrix(2.16 0 0 2.16 119.74 -21.796)"
       patternUnits="userSpaceOnUse"
       x="0"
       y="0"
       width="109.125"
       height="25.803"
       id="prefix__a">
      <path
         d="M109.125 6.712c-6.175 0-10.819 1.305-13.641 2.128-2.82.823-7.466 2.128-13.64 2.128S71.024 9.663 68.203 8.84c-2.821-.824-7.466-2.128-13.641-2.128-6.174 0-10.819 1.305-13.64 2.128-2.821.823-7.467 2.128-13.641 2.128s-10.82-1.305-13.64-2.128C10.819 8.017 6.174 6.712 0 6.712M109.125-1.89c-6.175 0-10.819 1.305-13.641 2.128-2.82.823-7.466 2.128-13.64 2.128S71.024 1.061 68.203.238C65.382-.585 60.737-1.89 54.562-1.89c-6.174 0-10.819 1.305-13.64 2.128-2.821.823-7.467 2.128-13.641 2.128S16.461 1.061 13.641.238C10.819-.585 6.174-1.89 0-1.89M109.125 23.915c-6.175 0-10.819 1.305-13.641 2.128-2.82.823-7.466 2.128-13.64 2.128s-10.82-1.305-13.641-2.128c-2.821-.824-7.466-2.128-13.641-2.128-6.174 0-10.819 1.305-13.64 2.128-2.821.823-7.467 2.128-13.641 2.128s-10.82-1.305-13.64-2.128C10.819 25.22 6.174 23.915 0 23.915M109.125 15.313c-6.175 0-10.819 1.305-13.641 2.128-2.82.823-7.466 2.128-13.64 2.128s-10.82-1.305-13.641-2.128c-2.821-.823-7.466-2.128-13.641-2.128-6.174 0-10.819 1.305-13.64 2.128-2.821.823-7.467 2.128-13.641 2.128s-10.82-1.305-13.64-2.128C10.819 16.618 6.174 15.313 0 15.313"
         fill="none"
         stroke="#000"
         stroke-width="3"
         stroke-linecap="square"
         id="path2" />
    </pattern>
  </defs>
  <g
     id="g917"
     transform="translate(10.352,0.32935)">
    <path
       d="M 6.8961,2.1483 39.855,67.655 72.399,2.1483 Z"
       id="path7"
       style="fill:#000000;fill-opacity:1;stroke:none;stroke-width:3;stroke-miterlimit:4;stroke-dasharray:none;stroke-opacity:1" />
    <path
       d="m 39.855,47.942 v 47.751 m 18.174,0 H 21.266"
       fill="none"
       stroke="#000000"
       stroke-width="2.90317"
       id="path9"
       style="fill:#000000;fill-opacity:1;stroke:#000000;stroke-width:3;stroke-miterlimit:4;stroke-dasharray:none;stroke-opacity:1" />
  </g>
</svg>
