<?xml version="1.0" encoding="UTF-8" standalone="no"?>
<svg
   width="100"
   height="100"
   version="1.1"
   id="svg9"
   sodipodi:docname="ASS_ORIFICE.svg"
   inkscape:version="1.1.1 (3bf5ae0d25, 2021-09-20)"
   xmlns:inkscape="http://www.inkscape.org/namespaces/inkscape"
   xmlns:sodipodi="http://sodipodi.sourceforge.net/DTD/sodipodi-0.dtd"
   xmlns="http://www.w3.org/2000/svg"
   xmlns:svg="http://www.w3.org/2000/svg"
   xmlns:rdf="http://www.w3.org/1999/02/22-rdf-syntax-ns#"
   xmlns:cc="http://creativecommons.org/ns#"
   xmlns:dc="http://purl.org/dc/elements/1.1/">
  <defs
     id="defs13" />
  <sodipodi:namedview
     id="namedview11"
     pagecolor="#505050"
     bordercolor="#eeeeee"
     borderopacity="1"
     inkscape:pageshadow="0"
     inkscape:pageopacity="0"
     inkscape:pagecheckerboard="0"
     showgrid="false"
     width="100px"
     inkscape:zoom="2.1524"
     inkscape:cx="12.544"
     inkscape:cy="87.577"
     inkscape:window-width="1598"
     inkscape:window-height="837"
     inkscape:window-x="0"
     inkscape:window-y="0"
     inkscape:window-maximized="1"
     inkscape:current-layer="svg9" />
  <metadata
     id="metadata829">
    <rdf:RDF>
      <cc:Work
         rdf:about="">
        <dc:format>image/svg+xml</dc:format>
        <dc:type
           rdf:resource="http://purl.org/dc/dcmitype/StillImage" />
        <cc:license
           rdf:resource="http://creativecommons.org/licenses/by-sa/4.0/" />
        <dc:creator>
          <cc:Agent>
            <dc:title>ASTEE</dc:title>
          </cc:Agent>
        </dc:creator>
        <dc:contributor>
          <cc:Agent>
            <dc:title>ASTEE; Le Grand Lyon</dc:title>
          </cc:Agent>
        </dc:contributor>
        <dc:language>FR</dc:language>
        <dc:subject>
          <rdf:Bag>
            <rdf:li>eau</rdf:li>
            <rdf:li>potable</rdf:li>
            <rdf:li>assainissement</rdf:li>
          </rdf:Bag>
        </dc:subject>
        <dc:date />
      </cc:Work>
      <cc:License
         rdf:about="http://creativecommons.org/licenses/by-sa/4.0/">
        <cc:permits
           rdf:resource="http://creativecommons.org/ns#Reproduction" />
        <cc:permits
           rdf:resource="http://creativecommons.org/ns#Distribution" />
        <cc:requires
           rdf:resource="http://creativecommons.org/ns#Notice" />
        <cc:requires
           rdf:resource="http://creativecommons.org/ns#Attribution" />
        <cc:permits
           rdf:resource="http://creativecommons.org/ns#DerivativeWorks" />
        <cc:requires
           rdf:resource="http://creativecommons.org/ns#ShareAlike" />
      </cc:License>
    </rdf:RDF>
  </metadata>
  <path
     fill="#000000"
     d="M 26.371,0.2255 C 11.924,0.2255 0.22475,11.925 0.22475,26.372 v 47.257 c 0,14.449 11.69925,26.146 26.14625,26.146 h 47.258 c 14.447,0 26.146,-11.697 26.146,-26.146 V 26.372 C 99.775,11.923 88.079,0.2255 73.629,0.2255 Z m 0,6.221 h 47.258 c 12.22,0 19.923,7.7025 19.923,19.9245 v 47.256 c 0,12.223 -7.703,19.928 -19.923,19.928 H 26.371 C 14.15,93.555 6.4457,85.85 6.4457,73.626 V 26.371 C 6.4457,14.15 14.149,6.4465 26.371,6.4465 Z"
     id="path5" />
  <path
     fill="#ffffff"
     fill-opacity="1"
     d="m 25.337,1.267 h 49.328 c 13.293,0 24.068,10.777 24.068,24.071 v 49.326 c 0,13.293 -10.775,24.069 -24.068,24.069 H 25.337 C 12.043,98.733 1.267,87.957 1.267,74.664 V 25.338 c 0,-13.294 10.776,-24.071 24.07,-24.071 z"
     id="path3"
     style="stroke:#000000;stroke-opacity:1;stroke-width:6;stroke-miterlimit:4;stroke-dasharray:none" />
  <circle
     fill="#000000"
     cx="50"
     cy="73.529"
     r="20.196"
     id="circle7"
     style="stroke-width:0.999982" />
</svg>
