<?xml version="1.0" encoding="UTF-8" standalone="no"?>
<svg
   width="100"
   height="100"
   version="1.1"
   id="svg2329"
   sodipodi:docname="ASS_BASSINCO_M.svg"
   inkscape:version="1.1.1 (3bf5ae0d25, 2021-09-20)"
   xmlns:inkscape="http://www.inkscape.org/namespaces/inkscape"
   xmlns:sodipodi="http://sodipodi.sourceforge.net/DTD/sodipodi-0.dtd"
   xmlns="http://www.w3.org/2000/svg"
   xmlns:svg="http://www.w3.org/2000/svg"
   xmlns:rdf="http://www.w3.org/1999/02/22-rdf-syntax-ns#"
   xmlns:cc="http://creativecommons.org/ns#"
   xmlns:dc="http://purl.org/dc/elements/1.1/">
  <metadata
     id="metadata829">
    <rdf:RDF>
      <cc:Work
         rdf:about="">
        <dc:format>image/svg+xml</dc:format>
        <dc:type
           rdf:resource="http://purl.org/dc/dcmitype/StillImage" />
        <cc:license
           rdf:resource="http://creativecommons.org/licenses/by-sa/4.0/" />
        <dc:creator>
          <cc:Agent>
            <dc:title>ASTEE</dc:title>
          </cc:Agent>
        </dc:creator>
        <dc:contributor>
          <cc:Agent>
            <dc:title>ASTEE; Le Grand Lyon</dc:title>
          </cc:Agent>
        </dc:contributor>
        <dc:language>FR</dc:language>
        <dc:subject>
          <rdf:Bag>
            <rdf:li>eau</rdf:li>
            <rdf:li>potable</rdf:li>
            <rdf:li>assainissement</rdf:li>
          </rdf:Bag>
        </dc:subject>
        <dc:date />
      </cc:Work>
      <cc:License
         rdf:about="http://creativecommons.org/licenses/by-sa/4.0/">
        <cc:permits
           rdf:resource="http://creativecommons.org/ns#Reproduction" />
        <cc:permits
           rdf:resource="http://creativecommons.org/ns#Distribution" />
        <cc:requires
           rdf:resource="http://creativecommons.org/ns#Notice" />
        <cc:requires
           rdf:resource="http://creativecommons.org/ns#Attribution" />
        <cc:permits
           rdf:resource="http://creativecommons.org/ns#DerivativeWorks" />
        <cc:requires
           rdf:resource="http://creativecommons.org/ns#ShareAlike" />
      </cc:License>
    </rdf:RDF>
  </metadata>
  <defs
     id="defs2333" />
  <sodipodi:namedview
     pagecolor="#ffffff"
     bordercolor="#666666"
     borderopacity="1"
     objecttolerance="10"
     gridtolerance="10"
     guidetolerance="10"
     inkscape:pageopacity="0"
     inkscape:pageshadow="2"
     inkscape:window-width="1598"
     inkscape:window-height="837"
     id="namedview2331"
     showgrid="false"
     inkscape:zoom="3.0062"
     inkscape:cx="37.922"
     inkscape:cy="59.711"
     inkscape:window-x="0"
     inkscape:window-y="0"
     inkscape:window-maximized="1"
     inkscape:current-layer="svg2329"
     inkscape:pagecheckerboard="0" />
  <path
     d="m 25.923,2.3412 h 48.154 c 12.978,0 23.499,10.5408 23.499,23.5408 V 74.12 c 0,12.999 -10.521,23.539 -23.499,23.539 H 25.923 C 12.946,97.659 2.4243,87.119 2.4243,74.12 V 25.881 c 0,-13 10.5207,-23.5398 23.4987,-23.5398 z"
     id="path2323"
     inkscape:connector-curvature="0"
     style="fill:#ffffff;fill-opacity:1;stroke:none" />
  <path
     fill="#000000"
     d="M 26.451,0.3917 C 12.051,0.3917 0.39072,12.052 0.39072,26.452 V 73.55 c 0,14.401 11.66028,26.058 26.06028,26.058 h 47.098 c 14.4,0 26.06,-11.655 26.06,-26.058 V 26.452 c 0,-14.4 -11.658,-26.0603 -26.06,-26.0603 z m 0,4.1348 H 73.549 A 21.835,21.835 0 0 1 95.474,26.45 V 73.548 A 21.836,21.836 0 0 1 73.549,95.475 H 26.451 A 21.835,21.835 0 0 1 4.5255,73.548 V 26.45 A 21.832,21.832 0 0 1 26.451,4.5265 Z M 8.6603,51.038 a 40.303,40.303 0 0 0 80.6047,0 z"
     id="path2325"
     inkscape:connector-curvature="0"
     style="stroke:none" />
</svg>
