<?xml version="1.0" encoding="UTF-8" standalone="no"?>
<svg
   width="100"
   height="100"
   version="1.1"
   id="svg1627"
   sodipodi:docname="ASS_BASSINCO.svg"
   inkscape:version="1.1.1 (3bf5ae0d25, 2021-09-20)"
   xmlns:inkscape="http://www.inkscape.org/namespaces/inkscape"
   xmlns:sodipodi="http://sodipodi.sourceforge.net/DTD/sodipodi-0.dtd"
   xmlns="http://www.w3.org/2000/svg"
   xmlns:svg="http://www.w3.org/2000/svg"
   xmlns:rdf="http://www.w3.org/1999/02/22-rdf-syntax-ns#"
   xmlns:cc="http://creativecommons.org/ns#"
   xmlns:dc="http://purl.org/dc/elements/1.1/">
  <metadata
     id="metadata829">
    <rdf:RDF>
      <cc:Work
         rdf:about="">
        <dc:format>image/svg+xml</dc:format>
        <dc:type
           rdf:resource="http://purl.org/dc/dcmitype/StillImage" />
        <cc:license
           rdf:resource="http://creativecommons.org/licenses/by-sa/4.0/" />
        <dc:creator>
          <cc:Agent>
            <dc:title>ASTEE</dc:title>
          </cc:Agent>
        </dc:creator>
        <dc:contributor>
          <cc:Agent>
            <dc:title>ASTEE; Le Grand Lyon</dc:title>
          </cc:Agent>
        </dc:contributor>
        <dc:language>FR</dc:language>
        <dc:subject>
          <rdf:Bag>
            <rdf:li>eau</rdf:li>
            <rdf:li>potable</rdf:li>
            <rdf:li>assainissement</rdf:li>
          </rdf:Bag>
        </dc:subject>
        <dc:date />
      </cc:Work>
      <cc:License
         rdf:about="http://creativecommons.org/licenses/by-sa/4.0/">
        <cc:permits
           rdf:resource="http://creativecommons.org/ns#Reproduction" />
        <cc:permits
           rdf:resource="http://creativecommons.org/ns#Distribution" />
        <cc:requires
           rdf:resource="http://creativecommons.org/ns#Notice" />
        <cc:requires
           rdf:resource="http://creativecommons.org/ns#Attribution" />
        <cc:permits
           rdf:resource="http://creativecommons.org/ns#DerivativeWorks" />
        <cc:requires
           rdf:resource="http://creativecommons.org/ns#ShareAlike" />
      </cc:License>
    </rdf:RDF>
  </metadata>
  <defs
     id="defs1631" />
  <sodipodi:namedview
     pagecolor="#ffffff"
     bordercolor="#666666"
     borderopacity="1"
     objecttolerance="10"
     gridtolerance="10"
     guidetolerance="10"
     inkscape:pageopacity="0"
     inkscape:pageshadow="2"
     inkscape:window-width="1598"
     inkscape:window-height="837"
     id="namedview1629"
     showgrid="false"
     inkscape:zoom="3.0062"
     inkscape:cx="22.288"
     inkscape:cy="50.729"
     inkscape:window-x="0"
     inkscape:window-y="0"
     inkscape:window-maximized="1"
     inkscape:current-layer="svg1627"
     inkscape:pagecheckerboard="0" />
  <path
     fill="#ffffff"
     fill-opacity="1"
     d="m 25.879,-0.37695 h 49.533 c 13.351,0 24.172,10.82195 24.172,24.17195 v 49.532 c 0,13.35 -10.821,24.171 -24.172,24.171 H 25.879 C 12.53,97.498 1.7079,86.677 1.7079,73.327 V 23.795 c 0,-13.35 10.8231,-24.17195 24.1711,-24.17195 z"
     id="path1621"
     inkscape:connector-curvature="0"
     style="stroke:#ffffff;stroke-width:0.265" />
  <path
     fill="#000000"
     d="M 26.271,0.01652 C 11.763,0.01652 0.01553,11.765 0.01553,26.272 v 47.453 c 0,14.508 11.74747,26.258 26.25547,26.258 h 47.457 c 14.51,0 26.256,-11.75 26.256,-26.258 V 26.272 C 99.984,11.764 88.238,0.01652 73.728,0.01652 Z m 0,6.25588 h 47.457 c 10.04,0 19.998,9.7716 19.998,19.9996 v 47.453 c 0,10.6 -10.328,20.01 -19.998,20.01 H 26.271 c -9.855,0 -20.0094,-9.41 -20.0094,-20.01 V 26.272 C 6.2616,15.115 16.043,6.2724 26.271,6.2724 Z M 14.839,45.95 v 3.937 c 0,12.443 6.715,23.958 17.586,30.162 a 35.506,35.506 0 0 0 35.143,0 C 78.439,73.846 85.171,62.33 85.171,49.887 V 45.95 Z m 8.934,7.871 H 76.24 c -1.258,7.964 -5.356,15.267 -12.577,19.385 a 27.609,27.609 0 0 1 -27.332,0 C 29.114,69.087 25.031,61.785 23.773,53.821 Z"
     id="path1623"
     style="stroke:none;stroke-opacity:1" />
</svg>
