<?xml version="1.0" encoding="UTF-8" standalone="no"?>
<svg
   width="100"
   height="100"
   version="1.1"
   id="svg2232"
   sodipodi:docname="ASS_DO.svg"
   inkscape:version="1.1.1 (3bf5ae0d25, 2021-09-20)"
   xmlns:inkscape="http://www.inkscape.org/namespaces/inkscape"
   xmlns:sodipodi="http://sodipodi.sourceforge.net/DTD/sodipodi-0.dtd"
   xmlns:xlink="http://www.w3.org/1999/xlink"
   xmlns="http://www.w3.org/2000/svg"
   xmlns:svg="http://www.w3.org/2000/svg"
   xmlns:rdf="http://www.w3.org/1999/02/22-rdf-syntax-ns#"
   xmlns:cc="http://creativecommons.org/ns#"
   xmlns:dc="http://purl.org/dc/elements/1.1/">
  <metadata
     id="metadata829">
    <rdf:RDF>
      <cc:Work
         rdf:about="">
        <dc:format>image/svg+xml</dc:format>
        <dc:type
           rdf:resource="http://purl.org/dc/dcmitype/StillImage" />
        <cc:license
           rdf:resource="http://creativecommons.org/licenses/by-sa/4.0/" />
        <dc:creator>
          <cc:Agent>
            <dc:title>ASTEE</dc:title>
          </cc:Agent>
        </dc:creator>
        <dc:contributor>
          <cc:Agent>
            <dc:title>ASTEE; Le Grand Lyon</dc:title>
          </cc:Agent>
        </dc:contributor>
        <dc:language>FR</dc:language>
        <dc:subject>
          <rdf:Bag>
            <rdf:li>eau</rdf:li>
            <rdf:li>potable</rdf:li>
            <rdf:li>assainissement</rdf:li>
          </rdf:Bag>
        </dc:subject>
        <dc:date />
      </cc:Work>
      <cc:License
         rdf:about="http://creativecommons.org/licenses/by-sa/4.0/">
        <cc:permits
           rdf:resource="http://creativecommons.org/ns#Reproduction" />
        <cc:permits
           rdf:resource="http://creativecommons.org/ns#Distribution" />
        <cc:requires
           rdf:resource="http://creativecommons.org/ns#Notice" />
        <cc:requires
           rdf:resource="http://creativecommons.org/ns#Attribution" />
        <cc:permits
           rdf:resource="http://creativecommons.org/ns#DerivativeWorks" />
        <cc:requires
           rdf:resource="http://creativecommons.org/ns#ShareAlike" />
      </cc:License>
    </rdf:RDF>
  </metadata>
  <sodipodi:namedview
     pagecolor="#ffffff"
     bordercolor="#666666"
     borderopacity="1"
     objecttolerance="10"
     gridtolerance="10"
     guidetolerance="10"
     inkscape:pageopacity="0"
     inkscape:pageshadow="2"
     inkscape:window-width="1598"
     inkscape:window-height="837"
     id="namedview2234"
     showgrid="false"
     inkscape:zoom="2.9506"
     inkscape:cx="37.28"
     inkscape:cy="40.839"
     inkscape:window-x="0"
     inkscape:window-y="0"
     inkscape:window-maximized="1"
     inkscape:current-layer="svg2232"
     inkscape:pagecheckerboard="0" />
  <defs
     id="defs2222">
    <linearGradient
       id="prefix__a"
       inkscape:swatch="solid">
      <stop
         offset="0"
         id="stop2218" />
    </linearGradient>
    <linearGradient
       xlink:href="#prefix__a"
       id="prefix__b"
       gradientUnits="userSpaceOnUse"
       gradientTransform="matrix(0.55047,0.55912,-0.41026,0.4662,-45.492,-59.415)"
       x1="35.705"
       y1="50.307"
       x2="78.402"
       y2="50.307" />
  </defs>
  <path
     d="M 59.252,7.7568 C 54.164,2.6908 45.842,2.6808 40.754,7.7478 L 7.5519,40.798 c -5.088,5.067 -5.079,13.346 0.01,18.413 L 40.754,92.249 c 5.088,5.067 13.398,5.067 18.49,0 L 92.442,59.2 c 5.092,-5.067 5.092,-13.337 0,-18.402 z M 53.425,49.94 Z"
     id="path2224"
     style="fill:#ffffff;fill-opacity:1;stroke:#000000;stroke-opacity:1;stroke-width:6;stroke-miterlimit:4;stroke-dasharray:none"
     stroke-width="6.694"
     stroke="param(outline)#000009"
     fill="param(fill)#fff"
     fill-opacity="1" />
  <g
     id="g1321">
    <path
       d="m 69.896,35.175 c 0.231,-0.264 0.643,-0.08 0.796,0.233 l 7.436,18.317 c 0.134,0.26 0,0.28 -0.194,0.211 L 58.841,48.335 c -0.35,-0.1 -0.608,-0.462 -0.363,-0.704 z"
       id="path2226"
       stroke="none"
       fill="#000000"
       style="fill:#000000;fill-opacity:1;stroke:none;stroke-width:6.00002;stroke-miterlimit:4;stroke-dasharray:none;stroke-opacity:1" />
    <path
       fill="#000000"
       stroke="none"
       d="m 40.022,34.105 c 5.608,-1.808 11.107,-1.652 15.513,-0.78 2.156,0.428 3.843,0.948 6.441,2.086 1.745,0.765 4.798,2.029 5.495,3.717 0.933,2.252 -0.21,4.152 -1.769,4.611 -1.737,0.514 -3.627,-1.236 -5.165,-1.965 -5.021,-2.379 -10.868,-3.514 -17.698,-1.745 -6.492,1.68 -11.581,5.795 -14.825,10.257 -1.255,1.729 -1.908,3.86 -3.395,4.352 -1.776,0.587 -3.466,-0.665 -3.897,-2.301 -0.572,-2.165 1.627,-4.786 2.549,-6.083 2.622,-3.685 5.453,-6.425 9.627,-8.993 2.096,-1.291 4.359,-2.265 7.124,-3.156 z"
       id="path2228"
       style="fill:#000000;fill-opacity:1;stroke:none;stroke-width:6.00007;stroke-miterlimit:4;stroke-dasharray:none;stroke-opacity:1" />
    <path
       d="m 49.198,16.959 0.251,66.082 v 0"
       id="path2230"
       stroke-width="5.669"
       stroke="#000000"
       fill="#000000"
       style="fill:#ffffff;fill-opacity:1;stroke:#000000;stroke-width:6;stroke-miterlimit:4;stroke-dasharray:none;stroke-opacity:1" />
  </g>
</svg>
